<svg width="18" height="15" viewBox="0 0 18 15" xmlns="http://www.w3.org/2000/svg">
<path d="M7.7075 13.7124C7.8975 13.5124 7.9975 13.2624 7.9975 13.0024C7.9975 12.7424 7.8975 12.4924 7.7075 12.2924L3.4075 8.00238L16.9975 8.00238C17.5475 8.00238 17.9975 7.55238 17.9975 7.00238C17.9975 6.45238 17.5475 6.00238 16.9975 6.00238L3.4075 6.00238L7.7075 1.71238C8.0975 1.32238 8.0975 0.682378 7.7075 0.292378C7.3175 -0.0976224 6.6775 -0.0976224 6.2875 0.292378L0.2875 6.29238C0.1975 6.38238 0.1275 6.49238 0.0775003 6.61238C0.0575003 6.66238 0.0375003 6.70238 0.0375003 6.75238C-0.0124997 6.91238 -0.0124997 7.09238 0.0375003 7.25238C0.0375003 7.30238 0.0575003 7.34238 0.0775003 7.39238C0.1275 7.51238 0.1975 7.62238 0.2875 7.71238L6.2875 13.7124C6.6775 14.1024 7.3175 14.1024 7.7075 13.7124"/>
</svg>
