<svg width="18" height="15" viewBox="0 0 18 15" xmlns="http://www.w3.org/2000/svg">
<path d="M10.2925 13.7124C10.1025 13.5124 10.0025 13.2624 10.0025 13.0024C10.0025 12.7424 10.1025 12.4924 10.2925 12.2924L14.5925 8.00238L1.0025 8.00238C0.452501 8.00238 0.0025002 7.55238 0.00250023 7.00238C0.00250025 6.45238 0.452501 6.00238 1.0025 6.00238L14.5925 6.00238L10.2925 1.71238C9.9025 1.32238 9.9025 0.682378 10.2925 0.292378C10.6825 -0.0976224 11.3225 -0.0976224 11.7125 0.292378L17.7125 6.29238C17.8025 6.38238 17.8725 6.49238 17.9225 6.61238C17.9425 6.66238 17.9625 6.70238 17.9625 6.75238C18.0125 6.91238 18.0125 7.09238 17.9625 7.25238C17.9625 7.30238 17.9425 7.34238 17.9225 7.39238C17.8725 7.51238 17.8025 7.62238 17.7125 7.71238L11.7125 13.7124C11.3225 14.1024 10.6825 14.1024 10.2925 13.7124Z"/>
</svg>
